#N canvas 930 545 1655 1227 12;
#X msg 112 100 devices;
#X msg 194 100 close;
#X msg 257 100 baud 115200 \, open 4;
#X obj 109 256 pdchoco/slip_parse;
#X obj 109 333 oscparse;
#X obj 109 381 list trim;
#X obj 111 472 tgl 19 0 empty empty empty 0 -10 0 12 #fcfcfc #000000 #000000 0 1;
#X obj 868 606 pdchoco/stream_flip_flop;
#X obj 109 200 comport;
#X obj 111 430 route pot but;
#X obj 110 642 change;
#X obj 111 751 select 0 1;
#X msg 145 708 0;
#X msg 183 709 1;
#X obj 112 786 bng 19 250 50 0 empty empty empty 0 -10 0 12 #fcfcfc #000000 #000000;
#X obj 146 785 bng 19 250 50 0 empty empty empty 0 -10 0 12 #fcfcfc #000000 #000000;
#X msg 507 919 connect 127.0.0.1 9777;
#X obj 508 1024 netsend -u -b;
#X obj 113 916 oscformat -f i vkb_midi 1 note 72;
#X obj 868 638 change;
#X obj 886 911 oscformat -f i vkb_midi 3 note 48;
#X obj 869 717 select 0 1;
#X obj 903 794 bng 19 250 50 0 empty empty empty 0 -10 0 12 #fcfcfc #000000 #000000;
#X msg 206 870 127;
#X obj 868 673 tgl 19 0 empty empty empty 0 -10 0 12 #fcfcfc #000000 #000000 0 1;
#X msg 905 854 63.5;
#X obj 241 473 nbx 5 17 -1e+37 1e+37 0 0 empty empty empty 0 -10 0 12 #fcfcfc #000000 #000000 0 256;
#X obj 241 584 / 4095;
#X obj 241 550 * 63.5;
#X obj 241 625 nbx 5 17 -1e+37 1e+37 0 0 empty empty empty 0 -10 0 12 #fcfcfc #000000 #000000 0 256;
#X obj 242 671 oscformat -f i vkb_midi 3 cc 13;
#X msg 113 871 0, f 7;
#X msg 869 855 0;
#X text 955 856 volume moitier;
#X text 803 761 premier 0;
#X text 910 762 volume deuxieme 1;
#X text 832 952 controle note 48 de la channel 4 puisque dans PD c decaler;
#X text 891 674 intérupteur;
#X text 497 880 doit cliquer connect;
#X text 405 99 doit cliquer baud;
#X text 285 699 controle reverb de la track 2 channel 4 \, le 13 est juste le chiffre choisi dans parametre \, midi link \, CC \, choix 13;
#X text 291 566 Produit croisé pour avoir exactement 127;
#X text 318 472 angle;
#X text 56 579 Lien flip flop direct;
#X text 866 564 Lien flip flop message;
#X connect 0 0 8 0;
#X connect 1 0 8 0;
#X connect 2 0 8 0;
#X connect 3 0 4 0;
#X connect 4 0 5 0;
#X connect 5 0 9 0;
#X connect 6 0 7 0;
#X connect 6 0 10 0;
#X connect 7 0 19 0;
#X connect 8 0 3 0;
#X connect 9 0 6 0;
#X connect 9 1 26 0;
#X connect 10 0 11 0;
#X connect 11 0 14 0;
#X connect 11 1 15 0;
#X connect 12 0 11 0;
#X connect 13 0 11 0;
#X connect 14 0 31 0;
#X connect 15 0 23 0;
#X connect 16 0 17 0;
#X connect 18 0 17 0;
#X connect 19 0 24 0;
#X connect 20 0 17 0;
#X connect 21 0 32 0;
#X connect 21 1 22 0;
#X connect 22 0 25 0;
#X connect 23 0 18 0;
#X connect 24 0 21 0;
#X connect 25 0 20 0;
#X connect 26 0 28 0;
#X connect 27 0 29 0;
#X connect 28 0 27 0;
#X connect 29 0 30 0;
#X connect 30 0 17 0;
#X connect 31 0 18 0;
#X connect 32 0 20 0;
