#N canvas 2307 478 975 924 12;
#X msg 112 100 devices;
#X msg 194 100 close;
#X msg 193 160 baud 115200 \, open 4;
#X obj 111 201 comport;
#X obj 110 254 pdchoco/slip_parse;
#X obj 109 302 oscparse;
#X obj 108 348 list trim;
#X obj 110 397 route bouton angle;
#X obj 110 439 tgl 19 0 empty empty empty 0 -10 0 12 #fcfcfc #000000 #000000 0 1;
#X obj 171 443 nbx 5 17 -1e+37 1e+37 0 0 empty empty empty 0 -10 0 12 #fcfcfc #000000 #000000 0 256;
#X obj 110 493 pdchoco/stream_flip_flop;
#X connect 0 0 3 0;
#X connect 1 0 3 0;
#X connect 2 0 3 0;
#X connect 3 0 4 0;
#X connect 4 0 5 0;
#X connect 5 0 6 0;
#X connect 6 0 7 0;
#X connect 7 0 8 0;
#X connect 7 1 9 0;
#X connect 8 0 10 0;
