#N canvas 684 0 1824 980 12;
#X msg 112 100 devices;
#X msg 194 100 close;
#X msg 193 160 baud 115200 \, open 4;
#X obj 110 254 pdchoco/slip_parse;
#X obj 109 328 oscparse;
#X obj 108 374 list trim;
#X obj 110 465 tgl 19 0 empty empty empty 0 -10 0 12 #fcfcfc #000000 #000000 0 1;
#X obj 171 469 nbx 5 17 -1e+37 1e+37 0 0 empty empty empty 0 -10 0 12 #fcfcfc #000000 #000000 0 256;
#X obj 111 518 pdchoco/stream_flip_flop;
#X obj 109 200 comport;
#X obj 107 290 list trim;
#X obj 110 423 route pot but;
#X obj 112 562 change;
#X obj 285 575 tgl 19 0 empty empty empty 0 -10 0 12 #fcfcfc #000000 #000000 0 1;
#X obj 435 595 select 0 1;
#X msg 433 550 0;
#X msg 471 551 1;
#X obj 436 630 bng 19 250 50 0 empty empty empty 0 -10 0 12 #fcfcfc #000000 #000000;
#X obj 473 628 bng 19 250 50 0 empty empty empty 0 -10 0 12 #fcfcfc #000000 #000000;
#X msg 437 674 1;
#X msg 480 673 1;
#X obj 437 729 oscformat -f f play;
#X obj 589 727 oscformat -f f stop;
#X msg 750 728 connect 127.0.0.1 9777;
#X obj 429 824 netsend -u -b;
#X msg 947 686 127;
#X obj 946 728 oscformat -f i vkb_midi 1 note 72;
#X connect 0 0 9 0;
#X connect 1 0 9 0;
#X connect 2 0 9 0;
#X connect 3 0 10 0;
#X connect 4 0 5 0;
#X connect 5 0 11 0;
#X connect 6 0 8 0;
#X connect 8 0 12 0;
#X connect 9 0 3 0;
#X connect 10 0 4 0;
#X connect 11 0 6 0;
#X connect 11 1 7 0;
#X connect 12 0 13 0;
#X connect 13 0 14 0;
#X connect 14 0 17 0;
#X connect 14 1 18 0;
#X connect 15 0 14 0;
#X connect 16 0 14 0;
#X connect 17 0 19 0;
#X connect 17 0 25 0;
#X connect 18 0 20 0;
#X connect 19 0 21 0;
#X connect 20 0 22 0;
#X connect 21 0 24 0;
#X connect 22 0 24 0;
#X connect 23 0 24 0;
#X connect 25 0 26 0;
#X connect 26 0 24 0;
